<?xml version="1.0" encoding="UTF-8" standalone="no"?>
<!DOCTYPE svg PUBLIC "-//W3C//DTD SVG 1.1//EN"
 "http://www.w3.org/Graphics/SVG/1.1/DTD/svg11.dtd">
<!-- Generated by graphviz version 2.38.0 (20140413.2041)
 -->
<!-- Title: classes_mypcCD Pages: 1 -->
<svg width="136pt" height="351pt"
 viewBox="0.00 0.00 136.00 351.00" xmlns="http://www.w3.org/2000/svg" xmlns:xlink="http://www.w3.org/1999/xlink">
<g id="graph0" class="graph" transform="scale(1 1) rotate(0) translate(4 347)">
<title>classes_mypcCD</title>
<polygon fill="white" stroke="none" points="-4,4 -4,-347 132,-347 132,4 -4,4"/>
<!-- 0 -->
<g id="node1" class="node"><title>0</title>
<polygon fill="none" stroke="black" points="15.5,-228.5 15.5,-342.5 112.5,-342.5 112.5,-228.5 15.5,-228.5"/>
<text text-anchor="middle" x="64" y="-327.3" font-family="Times New Roman,serif" font-size="14.00">Animal</text>
<polyline fill="none" stroke="black" points="15.5,-319.5 112.5,-319.5 "/>
<text text-anchor="start" x="23.5" y="-304.3" font-family="Times New Roman,serif" font-size="14.00">age : int</text>
<text text-anchor="start" x="23.5" y="-289.3" font-family="Times New Roman,serif" font-size="14.00">memories : list</text>
<text text-anchor="start" x="23.5" y="-274.3" font-family="Times New Roman,serif" font-size="14.00">name : str</text>
<text text-anchor="start" x="23.5" y="-259.3" font-family="Times New Roman,serif" font-size="14.00">words : str</text>
<polyline fill="none" stroke="black" points="15.5,-251.5 112.5,-251.5 "/>
<text text-anchor="start" x="23.5" y="-236.3" font-family="Times New Roman,serif" font-size="14.00">speak()</text>
</g>
<!-- 1 -->
<g id="node2" class="node"><title>1</title>
<polygon fill="none" stroke="black" points="0,-121.5 0,-191.5 56,-191.5 56,-121.5 0,-121.5"/>
<text text-anchor="middle" x="28" y="-176.3" font-family="Times New Roman,serif" font-size="14.00">Bird</text>
<polyline fill="none" stroke="black" points="0,-168.5 56,-168.5 "/>
<polyline fill="none" stroke="black" points="0,-144.5 56,-144.5 "/>
<text text-anchor="start" x="8" y="-129.3" font-family="Times New Roman,serif" font-size="14.00">move()</text>
</g>
<!-- 1&#45;&gt;0 -->
<g id="edge1" class="edge"><title>1&#45;&gt;0</title>
<path fill="none" stroke="black" d="M37.6473,-191.534C40.0278,-199.932 42.6588,-209.213 45.3097,-218.565"/>
<polygon fill="none" stroke="black" points="41.9753,-219.636 48.0699,-228.302 48.7099,-217.727 41.9753,-219.636"/>
</g>
<!-- 2 -->
<g id="node3" class="node"><title>2</title>
<polygon fill="none" stroke="black" points="13,-0.5 13,-84.5 115,-84.5 115,-0.5 13,-0.5"/>
<text text-anchor="middle" x="64" y="-69.3" font-family="Times New Roman,serif" font-size="14.00">FluffyPig</text>
<polyline fill="none" stroke="black" points="13,-61.5 115,-61.5 "/>
<text text-anchor="start" x="21" y="-46.3" font-family="Times New Roman,serif" font-size="14.00">price : float</text>
<text text-anchor="start" x="21" y="-31.3" font-family="Times New Roman,serif" font-size="14.00">tasteness : float</text>
<polyline fill="none" stroke="black" points="13,-23.5 115,-23.5 "/>
<text text-anchor="middle" x="64" y="-8.3" font-family="Times New Roman,serif" font-size="14.00"> </text>
</g>
<!-- 2&#45;&gt;1 -->
<g id="edge2" class="edge"><title>2&#45;&gt;1</title>
<path fill="none" stroke="black" d="M50.7993,-84.5687C47.9404,-93.4632 44.9072,-102.9 42.0181,-111.888"/>
<polygon fill="none" stroke="black" points="38.6828,-110.827 38.9547,-121.419 45.347,-112.969 38.6828,-110.827"/>
</g>
<!-- 3 -->
<g id="node4" class="node"><title>3</title>
<polygon fill="none" stroke="black" points="74,-121.5 74,-191.5 128,-191.5 128,-121.5 74,-121.5"/>
<text text-anchor="middle" x="101" y="-176.3" font-family="Times New Roman,serif" font-size="14.00">Pig</text>
<polyline fill="none" stroke="black" points="74,-168.5 128,-168.5 "/>
<polyline fill="none" stroke="black" points="74,-144.5 128,-144.5 "/>
<text text-anchor="middle" x="101" y="-129.3" font-family="Times New Roman,serif" font-size="14.00"> </text>
</g>
<!-- 2&#45;&gt;3 -->
<g id="edge3" class="edge"><title>2&#45;&gt;3</title>
<path fill="none" stroke="black" d="M77.5673,-84.5687C80.5057,-93.4632 83.6232,-102.9 86.5925,-111.888"/>
<polygon fill="none" stroke="black" points="83.2808,-113.021 89.741,-121.419 89.9275,-110.826 83.2808,-113.021"/>
</g>
<!-- 3&#45;&gt;0 -->
<g id="edge4" class="edge"><title>3&#45;&gt;0</title>
<path fill="none" stroke="black" d="M91.0847,-191.534C88.638,-199.932 85.934,-209.213 83.2094,-218.565"/>
<polygon fill="none" stroke="black" points="79.8095,-217.722 80.3726,-228.302 86.5301,-219.68 79.8095,-217.722"/>
</g>
</g>
</svg>
